<svg width="37" height="42" viewBox="0 0 37 42" fill="none" xmlns="http://www.w3.org/2000/svg">
<path d="M0.664794 26.5084L0.63501 10.8028L18.3266 0.511292L36.0573 10.7362L36.087 26.4408L25.4265 19.8905L25.4501 32.6284L21.1427 35.0778L21.0965 12.5382L32.1607 18.8845L32.1504 13.1866L18.4447 5.41936L4.7688 13.2563L4.77907 18.9358L16.0671 12.5474L16.1113 35.2202L11.9775 32.9121L11.9529 19.9161L0.664794 26.5084Z" fill="#00C8AF"/>
<path d="M36.087 26.4408L36.0963 31.1973L18.4663 41.4888L0.674038 31.2649L0.664795 26.5084L4.78935 24.1L4.79859 28.9251L18.5043 36.5838L32.1802 28.7796L32.171 24.0344L36.087 26.4408Z" fill="#001D99"/>
</svg>
